<?xml version="1.0" standalone="no"?>
<!DOCTYPE svg PUBLIC "-//W3C//DTD SVG 20010904//EN"
 "http://www.w3.org/TR/2001/REC-SVG-20010904/DTD/svg10.dtd">
<svg version="1.0" xmlns="http://www.w3.org/2000/svg"
 width="512.000000pt" height="512.000000pt" viewBox="0 0 512.000000 512.000000"
 preserveAspectRatio="xMidYMid meet">
<metadata>
Created by potrace 1.16, written by Peter Selinger 2001-2019
</metadata>
<g transform="translate(0.000000,512.000000) scale(0.100000,-0.100000)"
fill="#000000" stroke="none">
<path d="M3341 4069 c-14 -5 -101 -14 -194 -19 -135 -7 -171 -12 -181 -25 -9
-13 -16 -14 -46 -4 -26 9 -35 9 -38 1 -2 -8 -35 -12 -98 -12 -56 0 -94 -4 -94
-10 0 -6 -26 -10 -59 -10 -33 0 -63 -4 -66 -10 -3 -5 -30 -10 -60 -10 -30 0
-57 -4 -60 -10 -3 -5 -15 -10 -25 -10 -10 0 -26 -7 -34 -15 -8 -9 -30 -21 -48
-27 -18 -6 -47 -22 -64 -35 -17 -12 -40 -23 -52 -23 -15 0 -20 -5 -16 -15 4
-8 1 -15 -5 -15 -18 0 -103 -40 -118 -56 -8 -8 -19 -14 -24 -14 -5 0 -8 -5 -6
-11 1 -6 -18 -19 -43 -28 -25 -9 -46 -19 -48 -23 -2 -5 -10 -8 -19 -8 -16 0
-43 -24 -43 -39 0 -5 -15 -14 -34 -21 -19 -6 -47 -22 -62 -35 -16 -14 -32 -25
-36 -25 -5 0 -8 -7 -8 -15 0 -8 -9 -15 -20 -15 -11 0 -20 -4 -20 -10 0 -5 -9
-10 -20 -10 -11 0 -20 -4 -20 -10 0 -5 -7 -10 -15 -10 -8 0 -15 -4 -15 -9 0
-5 -9 -13 -20 -16 -11 -3 -20 -13 -20 -21 0 -8 -4 -12 -10 -9 -5 3 -10 2 -10
-2 0 -5 -13 -14 -30 -20 -16 -6 -34 -22 -39 -36 -5 -13 -29 -34 -53 -47 -24
-12 -66 -46 -94 -76 -27 -30 -55 -54 -61 -54 -7 0 -13 -10 -15 -22 -2 -13 -9
-22 -16 -20 -7 1 -12 -9 -12 -23 0 -14 -7 -28 -15 -31 -8 -3 -17 -15 -21 -26
-3 -11 -24 -37 -45 -58 -25 -24 -39 -47 -39 -63 0 -14 -4 -29 -10 -32 -5 -3
-10 -13 -10 -21 0 -8 -18 -33 -40 -56 -23 -22 -38 -43 -35 -46 8 -8 -46 -62
-62 -62 -7 0 -13 -11 -13 -25 0 -14 -4 -25 -10 -25 -5 0 -10 -9 -10 -20 0 -11
-4 -20 -10 -20 -5 0 -10 -9 -10 -19 0 -11 -5 -23 -10 -26 -6 -3 -10 -15 -10
-25 0 -10 -6 -23 -13 -27 -16 -10 -31 -49 -52 -133 -21 -83 -37 -120 -52 -120
-9 0 -13 -20 -13 -70 0 -40 -4 -70 -10 -70 -5 0 -10 -13 -10 -29 0 -17 -4 -33
-10 -36 -5 -3 -10 -29 -10 -56 0 -28 -7 -63 -15 -78 -8 -16 -11 -31 -8 -34 3
-4 -2 -9 -11 -13 -9 -3 -16 -12 -16 -19 0 -8 -7 -21 -16 -30 -14 -14 -16 -39
-16 -160 1 -84 -3 -147 -8 -150 -6 -3 -10 -17 -10 -31 0 -13 -4 -24 -10 -24
-6 0 -10 -75 -10 -205 0 -130 4 -205 10 -205 6 0 10 -49 10 -127 0 -70 4 -140
9 -157 16 -51 41 -219 41 -273 0 -28 5 -53 11 -55 9 -3 19 -49 36 -161 3 -20
9 -40 14 -43 5 -3 9 -29 9 -59 0 -30 5 -57 10 -60 6 -3 10 -28 10 -56 0 -35 4
-49 14 -49 8 0 17 -11 20 -25 6 -22 12 -25 51 -25 l45 0 0 40 c0 26 -6 42 -16
48 -12 7 -21 38 -31 113 -8 57 -23 129 -34 161 -10 31 -19 76 -19 98 0 29 -4
40 -15 40 -12 0 -15 16 -15 85 0 47 -4 85 -9 85 -14 0 -36 282 -47 590 -5 159
4 258 28 285 4 5 8 33 8 62 0 29 5 53 10 53 13 0 13 67 0 75 -13 8 -13 75 0
75 6 0 10 16 10 35 0 23 5 35 13 35 20 0 37 44 37 93 1 23 9 67 20 97 11 30
19 78 20 107 0 41 4 55 19 62 18 10 23 27 37 124 4 20 10 37 15 37 5 0 9 9 9
19 0 22 31 81 43 81 4 0 7 7 7 15 0 8 4 23 9 33 5 9 17 40 28 67 11 30 27 54
41 60 12 5 22 17 22 27 0 9 3 18 8 20 12 5 62 76 62 87 0 6 4 11 10 11 9 0 21
23 51 98 8 19 23 35 37 38 19 6 26 15 24 35 -1 3 14 23 33 44 20 21 35 48 35
61 0 13 6 24 13 24 20 0 53 31 61 58 4 12 14 22 23 22 9 0 23 8 32 18 19 20
49 40 74 48 9 4 17 12 17 19 0 17 66 75 85 75 9 0 26 11 39 25 13 14 28 25 35
25 6 0 11 5 11 10 0 6 7 10 15 10 8 0 19 9 25 20 6 11 25 26 43 34 18 8 47 28
66 45 18 17 38 31 43 31 6 0 23 11 40 25 16 14 39 25 51 25 12 0 31 11 41 25
10 14 25 25 32 25 8 0 14 5 14 10 0 6 9 10 20 10 11 0 20 4 20 9 0 5 20 17 45
27 25 9 45 20 45 24 0 6 46 32 60 34 3 1 19 11 37 24 17 12 41 22 53 22 11 0
19 4 15 9 -9 16 64 45 140 55 22 3 72 10 110 16 39 5 95 10 126 10 70 0 120
10 113 21 -3 5 14 9 38 10 121 2 350 19 398 30 75 16 350 23 363 10 6 -6 23
-11 37 -11 15 0 29 -3 32 -6 8 -7 -23 -38 -45 -47 -27 -10 -18 -97 9 -97 8 0
14 -4 14 -10 0 -5 12 -10 28 -10 29 1 62 20 62 38 0 6 5 12 10 14 16 5 -9 68
-26 68 -19 0 -18 16 1 24 20 7 45 -3 71 -31 12 -13 24 -23 28 -23 16 0 36 -30
36 -54 0 -14 5 -26 10 -26 6 0 10 -18 10 -40 0 -22 -4 -40 -10 -40 -5 0 -10
-7 -10 -15 0 -8 -17 -26 -38 -40 -22 -14 -44 -36 -51 -48 -7 -12 -32 -33 -56
-46 -24 -13 -46 -29 -49 -37 -3 -8 -20 -14 -40 -14 -19 0 -38 -4 -41 -10 -3
-5 -17 -10 -30 -10 -24 0 -46 -14 -89 -55 -18 -18 -71 -46 -118 -61 -10 -4
-18 -13 -18 -20 0 -8 -6 -14 -13 -14 -18 0 -114 -47 -122 -60 -3 -5 -12 -10
-20 -10 -8 0 -25 -10 -39 -23 -13 -13 -47 -29 -75 -37 -28 -7 -51 -17 -51 -22
0 -4 -11 -8 -25 -8 -15 0 -25 -6 -25 -14 0 -16 -40 -31 -110 -41 -57 -9 -137
-43 -144 -61 -4 -10 -24 -14 -71 -14 -37 0 -65 -4 -65 -10 0 -5 -9 -10 -20
-10 -11 0 -20 -4 -20 -9 0 -5 -17 -11 -37 -14 -21 -3 -83 -11 -138 -18 -55 -7
-102 -16 -105 -19 -15 -21 -319 -39 -368 -22 -16 5 -41 5 -59 0 -26 -7 -33
-14 -33 -33 0 -14 5 -25 10 -25 6 0 10 -6 10 -13 0 -25 64 -34 220 -32 170 2
256 14 253 33 -2 8 17 12 65 12 37 0 72 4 78 9 5 5 32 11 59 14 28 2 70 12 95
22 40 15 91 23 158 25 13 0 20 4 17 10 -3 5 6 12 20 16 14 3 25 10 25 15 0 5
11 9 25 9 14 0 25 5 25 10 0 6 16 10 35 10 19 0 35 5 35 10 0 6 18 10 40 10
25 0 43 5 46 14 6 16 47 37 132 67 35 12 62 27 62 35 0 8 7 14 15 14 8 0 15 5
15 10 0 6 11 10 25 10 14 0 25 4 25 8 0 4 20 16 45 26 25 11 45 23 45 27 0 9
86 49 105 49 18 0 45 -45 45 -74 0 -13 7 -26 15 -30 8 -3 15 -15 15 -26 0 -11
3 -20 8 -20 4 0 13 -12 20 -27 15 -33 17 -213 2 -213 -5 0 -10 -25 -10 -55 0
-30 -4 -55 -10 -55 -5 0 -10 -7 -10 -16 0 -9 5 -12 13 -8 10 6 10 4 0 -7 -7
-7 -13 -38 -13 -70 0 -35 -5 -63 -14 -71 -34 -34 -47 -234 -52 -815 -4 -485
-4 -503 16 -555 15 -41 20 -77 20 -156 0 -57 4 -101 9 -98 10 7 21 -91 21
-190 0 -40 5 -76 10 -79 6 -3 10 -15 10 -26 0 -10 5 -19 10 -19 6 0 10 -42 10
-105 0 -57 4 -114 9 -127 6 -13 13 -54 16 -91 4 -38 9 -66 13 -62 14 13 60
-207 61 -292 l1 -43 53 0 53 0 -18 143 c-9 78 -22 150 -28 159 -5 10 -10 24
-10 32 0 8 -6 16 -14 19 -16 6 -21 42 -36 237 -6 74 -16 149 -22 165 -6 17
-14 75 -18 130 -9 116 -8 108 -19 101 -11 -7 -21 102 -21 226 0 92 -12 148
-32 148 -9 0 -4 438 10 890 9 253 23 377 45 392 6 3 14 48 18 100 5 51 13 113
18 138 13 59 14 265 1 311 -5 19 -19 45 -30 57 -11 12 -23 42 -27 67 -3 25
-10 45 -14 45 -5 0 -9 13 -9 29 0 30 14 41 55 41 13 0 30 6 37 13 7 7 39 26
71 41 31 16 57 32 57 37 0 5 6 9 14 9 8 0 16 7 20 15 3 8 10 15 16 15 15 0 40
25 40 39 0 6 6 11 13 11 28 0 57 83 57 161 0 128 -61 238 -132 239 -17 0 -28
6 -28 13 0 9 -22 19 -57 26 -32 7 -71 17 -87 22 -39 12 -405 10 -435 -2z"/>
<path d="M1943 3396 c-13 -6 -23 -16 -23 -23 0 -7 -4 -13 -10 -13 -5 0 -10 -7
-10 -15 0 -8 5 -15 10 -15 6 0 10 -9 10 -20 0 -11 5 -20 11 -20 6 0 17 -7 25
-15 20 -20 31 -19 51 5 10 11 23 20 30 20 14 0 17 30 7 68 -4 13 -14 22 -25
22 -11 0 -19 5 -19 10 0 13 -28 11 -57 -4z"/>
<path d="M3057 1723 c-4 -3 -7 -15 -7 -25 0 -10 -4 -18 -10 -18 -5 0 -10 -18
-10 -39 0 -22 -4 -43 -10 -46 -5 -3 -10 -24 -10 -46 0 -26 -5 -42 -15 -45 -8
-4 -15 -16 -15 -28 0 -11 -13 -55 -28 -96 -22 -59 -32 -76 -50 -78 -22 -3 -22
-1 -22 107 0 67 -4 111 -10 111 -6 0 -10 30 -10 69 0 52 -4 72 -17 82 -13 11
-17 11 -20 2 -3 -7 -11 -13 -19 -13 -11 0 -14 -27 -14 -146 0 -94 4 -143 10
-139 6 4 10 -8 10 -29 0 -32 -3 -36 -36 -42 l-35 -6 2 -103 c2 -113 2 -114
-61 -149 -41 -23 -60 -41 -60 -55 0 -6 -11 -11 -25 -11 -14 0 -25 -4 -25 -8 0
-5 -23 -22 -52 -37 -29 -16 -62 -39 -74 -52 -12 -13 -28 -23 -35 -23 -8 0 -25
-9 -39 -20 -14 -11 -33 -20 -42 -20 -10 0 -18 -7 -18 -15 0 -8 -6 -15 -14 -15
-8 0 -16 -3 -18 -8 -1 -4 -31 -21 -65 -38 -34 -18 -60 -34 -57 -36 2 -3 -16
-13 -41 -23 -25 -11 -45 -23 -45 -27 0 -4 -14 -8 -31 -8 -17 0 -28 -4 -24 -10
3 -5 -1 -10 -9 -10 -8 0 -19 -6 -23 -14 -9 -16 -139 -86 -159 -86 -8 0 -14 -6
-14 -12 0 -16 -46 -38 -76 -38 -18 0 -23 7 -27 37 -7 48 -29 126 -39 133 -4 3
-12 26 -18 50 -6 25 -16 63 -22 85 -5 22 -12 61 -15 87 -3 27 -9 45 -14 42 -5
-3 -9 8 -9 25 0 16 -6 34 -14 38 -7 4 -16 26 -19 48 -4 22 -11 60 -16 85 -5
25 -20 97 -32 160 -13 63 -29 121 -36 128 -7 7 -13 31 -13 53 0 21 -4 39 -10
39 -5 0 -10 14 -10 30 0 17 -5 40 -12 53 -6 12 -14 29 -18 37 -4 8 -19 16 -33
18 -22 3 -28 -2 -33 -24 -4 -15 -2 -46 5 -68 7 -23 15 -54 18 -71 3 -16 11
-37 18 -45 12 -14 19 -47 31 -152 3 -27 10 -48 15 -48 5 0 9 -20 9 -45 0 -25
5 -45 10 -45 6 0 10 -24 11 -52 0 -48 15 -108 19 -83 1 6 6 -6 10 -25 19 -83
53 -206 61 -222 5 -10 9 -31 9 -47 0 -16 6 -31 15 -35 10 -3 15 -19 15 -46 0
-22 4 -40 9 -40 8 0 13 -16 30 -110 12 -64 20 -80 48 -91 37 -14 127 15 146
47 4 8 14 14 21 14 18 0 66 24 66 33 0 4 11 7 25 7 14 0 25 4 25 9 0 5 9 11
21 14 12 3 18 10 15 15 -3 5 13 15 34 22 22 7 40 16 40 19 0 4 23 15 50 26 28
11 50 25 50 32 0 7 7 13 15 13 8 0 15 5 15 10 0 6 7 10 15 10 15 0 106 47 115
60 8 10 130 80 141 80 5 0 9 6 9 13 1 6 32 27 71 46 38 19 79 42 91 53 12 10
38 23 60 28 21 6 38 15 38 20 0 6 11 10 25 10 14 0 25 5 25 10 0 6 15 10 34
10 19 0 41 7 50 15 8 8 21 15 29 15 8 0 27 7 43 15 15 8 65 24 110 36 65 17
84 26 88 43 10 35 7 42 -20 54 -23 11 -25 16 -18 57 5 36 3 46 -10 51 -9 3
-16 12 -16 20 0 8 -10 14 -25 14 -16 0 -25 -6 -25 -15 0 -8 -4 -15 -10 -15 -5
0 -10 14 -10 30 0 17 5 30 10 30 6 0 10 14 10 30 0 17 5 30 10 30 6 0 10 11
10 25 0 14 5 25 10 25 6 0 10 18 10 39 0 22 6 46 13 53 11 11 21 46 41 140 4
17 0 32 -10 42 -16 16 -46 21 -57 9z"/>
</g>
</svg>
