<?xml version="1.0" standalone="no"?>
<!DOCTYPE svg PUBLIC "-//W3C//DTD SVG 20010904//EN"
 "http://www.w3.org/TR/2001/REC-SVG-20010904/DTD/svg10.dtd">
<svg version="1.0" xmlns="http://www.w3.org/2000/svg"
 width="199.000000pt" height="150.000000pt" viewBox="0 0 199.000000 150.000000"
 preserveAspectRatio="xMidYMid meet">
<metadata>
Created by potrace 1.10, written by Peter Selinger 2001-2011
</metadata>

<style>
    path {
        fill: #FF0000;
    }
    @media (prefers-color-scheme: dark) {
        path {
            fill: #0400FF;
        }
    }
</style>

<g transform="translate(0.000000,150.000000) scale(0.100000,-0.100000)"
stroke="none">
<path d="M1070 1349 c-30 -4 -73 -12 -95 -18 -22 -6 -61 -16 -87 -22 -27 -7
-48 -16 -48 -20 0 -4 -11 -10 -25 -13 -14 -4 -50 -22 -80 -41 -30 -19 -58 -35
-63 -35 -9 0 -102 -67 -112 -80 -3 -4 -16 -13 -29 -20 -73 -38 -151 -137 -222
-279 -22 -45 -43 -81 -46 -81 -3 0 -37 30 -75 68 -77 75 -106 120 -86 134 29
19 169 99 253 146 74 40 94 47 112 39 30 -13 53 -2 53 26 0 17 11 28 45 45 41
20 55 39 39 55 -4 4 -29 -5 -56 -20 -26 -14 -50 -24 -53 -21 -2 2 4 29 15 58
12 33 16 58 11 63 -20 20 -38 -3 -50 -63 -8 -40 -18 -63 -29 -68 -9 -3 -25
-16 -35 -29 -11 -13 -42 -35 -70 -50 -28 -14 -67 -35 -87 -48 -19 -12 -72 -44
-117 -70 -52 -30 -83 -55 -83 -66 0 -35 52 -106 125 -172 l75 -68 -23 -42
c-49 -89 -101 -311 -109 -467 0 -8 -7 -46 -14 -83 -20 -96 -19 -107 9 -107 22
0 25 6 36 88 7 48 17 105 21 127 5 22 14 83 20 135 7 56 23 130 42 180 16 47
32 95 35 107 3 13 10 23 16 23 5 0 48 -37 94 -82 96 -95 111 -105 119 -84 4
11 -26 46 -95 114 l-102 97 51 90 c29 50 63 104 76 122 13 17 24 34 24 36 0
13 69 81 100 99 19 12 46 31 60 43 34 31 215 135 233 135 8 0 20 7 27 15 7 8
21 15 32 15 11 0 29 5 40 11 62 33 396 52 510 28 123 -25 228 -80 215 -112 -3
-8 -27 -24 -54 -36 -26 -13 -55 -26 -64 -31 -47 -25 -286 -51 -530 -57 -141
-4 -198 -2 -203 6 -4 6 -18 11 -32 11 -21 0 -25 -4 -22 -22 6 -40 41 -48 213
-47 160 0 236 6 417 30 54 7 99 11 102 8 9 -9 -14 -197 -29 -239 -15 -43 -21
-96 -46 -445 -13 -173 -13 -183 -11 -292 2 -66 4 -73 22 -73 18 0 20 7 20 73
0 39 5 115 10 167 5 52 10 137 11 188 l2 94 69 81 c38 45 90 106 116 136 26
30 57 68 69 85 13 16 36 35 53 42 51 22 67 94 21 94 -17 0 -18 5 -14 41 5 36
4 41 -13 37 -14 -2 -20 -13 -22 -46 -2 -23 -6 -42 -10 -42 -4 0 -16 16 -26 35
-11 21 -27 35 -38 35 -27 0 -22 -20 17 -69 19 -24 35 -48 35 -53 0 -9 -82
-115 -108 -138 -10 -8 -33 -35 -52 -60 -19 -25 -40 -51 -47 -58 -7 -8 -18 -23
-24 -34 -7 -12 -14 -17 -20 -11 -10 10 6 99 37 208 9 33 20 105 23 160 l6 99
60 26 c33 14 73 34 89 44 25 18 28 24 23 59 -7 49 -35 80 -100 107 -29 11 -61
25 -72 29 -67 29 -342 40 -475 20z"/>
<path d="M1536 1205 c-6 -18 16 -30 39 -21 20 7 8 36 -15 36 -10 0 -21 -7 -24
-15z"/>
<path d="M935 1180 c-10 -17 20 -44 40 -36 9 3 15 14 13 23 -4 21 -43 30 -53
13z"/>
</g>
</svg>
